<svg xmlns="http://www.w3.org/2000/svg" viewBox="0 0 91.101 37.86">
  <defs>
    <style>
      .cls-1 {
        fill: #221815;
      }

      .cls-2 {
        fill: #e60012;
      }
    </style>
  </defs>
  <g id="Japan_Duty_Free_Shop" data-name="Japan Duty Free Shop" transform="translate(0.01)">
    <path id="Path_10" data-name="Path 10" class="cls-1" d="M61.95,2.93V8.41a2.6,2.6,0,0,1-2.75,2.9c-2.06,0-2.62-1.16-2.75-2.8h1.76c.01.59.12,1.53.99,1.53.94,0,.94-1.07.99-1.66V2.93Z"/>
    <path id="Path_11" data-name="Path 11" class="cls-1" d="M63.17,7.05a1.527,1.527,0,0,1,.78-1.42,3.28,3.28,0,0,1,1.68-.37c1.15,0,2.44.42,2.44,2.14v3.12a4.1,4.1,0,0,0,.08.63H66.6a5.063,5.063,0,0,1-.06-.76h-.02a1.853,1.853,0,0,1-1.75.93,1.679,1.679,0,0,1-1.86-1.73,1.986,1.986,0,0,1,1.22-1.81,5.367,5.367,0,0,1,2.23-.31V6.93a.732.732,0,0,0-.79-.71.774.774,0,0,0-.76.82H63.17Zm1.37,2.3a.8.8,0,0,0,.83.82c.94,0,.98-1.04.98-1.72-.59-.01-1.81-.02-1.81.9"/>
    <path id="Path_12" data-name="Path 12" class="cls-1" d="M71.03,6.09h.02a1.919,1.919,0,0,1,1.52-.83,2.754,2.754,0,0,1,2.67,3.02c0,1.47-.79,3.02-2.46,3.02a1.88,1.88,0,0,1-1.74-.98h-.02v2.99h-1.7V6.57c0-.38-.03-.76-.06-1.14H71Zm1.23,4.08c1.09,0,1.23-1.01,1.23-1.89s-.14-1.89-1.23-1.89c-.92,0-1.23,1.1-1.23,1.89s.31,1.89,1.23,1.89"/>
    <path id="Path_13" data-name="Path 13" class="cls-1" d="M76.21,7.05a1.539,1.539,0,0,1,.77-1.42,3.28,3.28,0,0,1,1.68-.37c1.15,0,2.43.42,2.43,2.14v3.12a5.894,5.894,0,0,0,.08.63H79.64a6.84,6.84,0,0,1-.06-.76h-.02a1.863,1.863,0,0,1-1.75.93,1.687,1.687,0,0,1-1.87-1.73,1.986,1.986,0,0,1,1.22-1.81,5.389,5.389,0,0,1,2.23-.31V6.93a.729.729,0,0,0-.78-.71.767.767,0,0,0-.76.82H76.21Zm1.37,2.3a.8.8,0,0,0,.83.82c.94,0,.98-1.04.98-1.72-.59-.01-1.81-.02-1.81.9"/>
    <path id="Path_14" data-name="Path 14" class="cls-1" d="M84.01,6.09l.02.03a1.95,1.95,0,0,1,1.75-.86,2.07,2.07,0,0,1,1.88,1.25,4.045,4.045,0,0,1,.12.91v3.72H86.07V7.71c-.01-.61-.18-1.31-1.02-1.31-.54,0-1,.48-1.02,1.31v3.43h-1.7V5.43h1.69v.66Z"/>
    <rect id="Rectangle_44" data-name="Rectangle 44" class="cls-1" width="1.44" height="1.51" transform="translate(89.15 9.63)"/>
    <path id="Path_15" data-name="Path 15" class="cls-2" d="M36.37,22.44a5.273,5.273,0,0,1,3.3-3.96A5.42,5.42,0,0,1,41,18.1a18.914,18.914,0,0,0-37.81.83c0,.32.03.63.05.95a1.94,1.94,0,0,1,.36-.32,3.567,3.567,0,0,1,.34,1.81A3.621,3.621,0,0,1,5.27,20.1a5.739,5.739,0,0,1,0,2.87,4.651,4.651,0,0,1-1.14,1.84A18.93,18.93,0,0,0,32.7,34.63c-.06-.07-.12-.13-.17-.2a4.427,4.427,0,0,1-.68-3.85,4.009,4.009,0,0,1,3.45,1.83.209.209,0,0,0,.04.06,18.914,18.914,0,0,0,5.28-9.54,5.825,5.825,0,0,1-4.25-.49m-4.95-6.6a5.144,5.144,0,0,1,1.48-2.19,3.319,3.319,0,0,1,.36,1.66,3.4,3.4,0,0,1,1.2-1.21,5,5,0,0,1,.07,2.65,4.17,4.17,0,0,1-2.49,2.74,3.827,3.827,0,0,1-.62-3.65m-9.14,3.73a7.85,7.85,0,0,1,4.08-.01,5.072,5.072,0,0,1-1.8,1.9,5.258,5.258,0,0,1,2.58.48,7.763,7.763,0,0,1-3.31,2.39,6.446,6.446,0,0,1-5.65-.8,5.887,5.887,0,0,1,4.1-3.96M7.07,21.94a5.218,5.218,0,0,1,2.58-.48,5.153,5.153,0,0,1-1.8-1.9,7.85,7.85,0,0,1,4.08.01,6.425,6.425,0,0,1,4.1,3.96,5.858,5.858,0,0,1-5.64.8,7.676,7.676,0,0,1-3.32-2.39m8.38,8.48a7.907,7.907,0,0,1-3.3,2.41,5.179,5.179,0,0,1,.34-2.6,5.224,5.224,0,0,1-2.36,1.13,7.9,7.9,0,0,1,1.27-3.88,6.427,6.427,0,0,1,5.04-2.67,5.863,5.863,0,0,1-.99,5.61M14.6,17.63a7.93,7.93,0,0,1,1.25-3.89,5.19,5.19,0,0,1,1.25,2.3,5.113,5.113,0,0,1,1.25-2.3,7.93,7.93,0,0,1,1.25,3.89,6.444,6.444,0,0,1-2.5,5.12,5.834,5.834,0,0,1-2.5-5.12m9.48,13.73a5.105,5.105,0,0,1-2.37-1.13,5.045,5.045,0,0,1,.34,2.6,7.969,7.969,0,0,1-3.3-2.41,6.409,6.409,0,0,1-.98-5.61,5.839,5.839,0,0,1,5.03,2.68,7.8,7.8,0,0,1,1.28,3.87m.43-2.76a3.642,3.642,0,0,1,1.77-.33,3.659,3.659,0,0,1-1.24-1.3,5.52,5.52,0,0,1,2.8.01,4.418,4.418,0,0,1,2.81,2.72,4.031,4.031,0,0,1-3.87.55,5.356,5.356,0,0,1-2.27-1.65m5.75,5.82A5.435,5.435,0,0,1,28,36.07a3.436,3.436,0,0,1,.23-1.78,3.614,3.614,0,0,1-1.62.77,5.384,5.384,0,0,1,.87-2.66,4.414,4.414,0,0,1,3.45-1.83,4.02,4.02,0,0,1-.67,3.85m1.13-5.26a4.014,4.014,0,0,1-1.72-3.51,5.452,5.452,0,0,1,.86-2.67,3.543,3.543,0,0,1,.86,1.58,3.435,3.435,0,0,1,.86-1.58,5.405,5.405,0,0,1,.86,2.67,4.388,4.388,0,0,1-1.72,3.51M36,30.25a4.433,4.433,0,0,1-3.87-.55,4.026,4.026,0,0,1,2.81-2.72,5.52,5.52,0,0,1,2.8-.01,3.466,3.466,0,0,1-1.24,1.3,3.548,3.548,0,0,1,1.77.33A5.356,5.356,0,0,1,36,30.25m-1.21,5.82a3.436,3.436,0,0,0-.23-1.78,3.614,3.614,0,0,0,1.62.77,5.4,5.4,0,0,0-.84-2.6,18.292,18.292,0,0,1-2.64,2.16,5.468,5.468,0,0,0,2.09,1.45M4.19,31.48a3.634,3.634,0,0,0,1.03-1.52,5.54,5.54,0,0,0-2.83.46,4.1,4.1,0,0,0-2.4,3.2,4.513,4.513,0,0,0,4-.07,5.639,5.639,0,0,0,2.03-2.02,3.286,3.286,0,0,0-1.83-.05m-2.27-9.6a4.113,4.113,0,0,0,.57,3.97,4.194,4.194,0,0,0,1.64-1.04,18.681,18.681,0,0,1-.89-4.93,5.428,5.428,0,0,0-1.32,2M41.9,19.96a4.846,4.846,0,0,0,1.44-1.88,7.007,7.007,0,0,0-2.33.02c.01.28.04.55.04.83a18.69,18.69,0,0,1-.43,3.99,6.4,6.4,0,0,0,.9-.31,7.127,7.127,0,0,0,2.75-2.47,4.719,4.719,0,0,0-2.37-.18M45.96,9.48a4.506,4.506,0,0,0,1.78-1.57,7.222,7.222,0,0,0-3.67-.33,5.249,5.249,0,0,0-4.01,3.23,5.777,5.777,0,0,0,5.01,1.18,7.118,7.118,0,0,0,3.18-1.88,5.024,5.024,0,0,0-2.29-.63"/>
    <path id="Path_16" data-name="Path 16" class="cls-1" d="M54.86,23.44h.85V16.32h2.67v-.74H52.2v.74h2.66Z"/>
    <path id="Path_17" data-name="Path 17" class="cls-1" d="M62.59,21.09V19.77a5.584,5.584,0,0,0-.05-.89,1.411,1.411,0,0,0-.29-.63,1.507,1.507,0,0,0-.64-.41,3.51,3.51,0,0,0-1.18-.17,3.883,3.883,0,0,0-1.29.2,1.89,1.89,0,0,0-.83.55,2.31,2.31,0,0,0-.39.85l.76.1a1.513,1.513,0,0,1,.51-.84,1.8,1.8,0,0,1,1.09-.27,1.774,1.774,0,0,1,1.2.36,1.2,1.2,0,0,1,.32.93c0,.04,0,.12-.01.26v.07l-.07.02a9.818,9.818,0,0,1-1.79.35,5.772,5.772,0,0,0-.87.15,2.22,2.22,0,0,0-.68.31,1.446,1.446,0,0,0-.48.53,1.518,1.518,0,0,0-.18.73,1.438,1.438,0,0,0,.48,1.12,2.053,2.053,0,0,0,1.41.44,2.888,2.888,0,0,0,1.06-.19,3.583,3.583,0,0,0,1.03-.64l.15-.13.02.2a2.233,2.233,0,0,0,.16.63h.79a2.051,2.051,0,0,1-.18-.58c-.03-.21-.05-.79-.05-1.73m-.79-.12a2.546,2.546,0,0,1-.17,1.04,1.643,1.643,0,0,1-.7.73,2.1,2.1,0,0,1-1.07.26,1.419,1.419,0,0,1-.95-.29.975.975,0,0,1-.34-.74.988.988,0,0,1,.15-.53.928.928,0,0,1,.44-.36,3.62,3.62,0,0,1,.89-.21,6.678,6.678,0,0,0,1.59-.37l.15-.06v.53Z"/>
    <path id="Path_18" data-name="Path 18" class="cls-1" d="M68.69,23.44l-2.1-2.99,1.94-2.65h-.92l-.95,1.34c-.13.18-.28.4-.45.64l-.09.14-.09-.15c-.1-.17-.24-.39-.4-.65l-.87-1.32h-.98l1.9,2.7-2.06,2.93h.94l1.59-2.39.41.62,1.17,1.77h.96Z"/>
    <rect id="Rectangle_45" data-name="Rectangle 45" class="cls-1" width="2.83" height="0.78" transform="translate(69.18 20.23)"/>
    <path id="Path_19" data-name="Path 19" class="cls-1" d="M73.64,23.44h.77V18.36h1.14V17.8H74.41v-.64a1.11,1.11,0,0,1,.22-.8.944.944,0,0,1,.71-.22,2.964,2.964,0,0,1,.5.04l.11-.66a4.808,4.808,0,0,0-.8-.08,1.778,1.778,0,0,0-.95.22,1.153,1.153,0,0,0-.46.57,2.506,2.506,0,0,0-.1.84v.73h-.88v.56h.88Z"/>
    <path id="Path_20" data-name="Path 20" class="cls-1" d="M78.08,17.85a2.375,2.375,0,0,0-.6.78l-.2.37V17.8H76.6v5.64h.78V20.49a4.072,4.072,0,0,1,.17-1.19,1.223,1.223,0,0,1,.41-.6,1.084,1.084,0,0,1,.65-.22,1.512,1.512,0,0,1,.67.17l.27-.72a1.813,1.813,0,0,0-.89-.26,1.018,1.018,0,0,0-.58.18"/>
    <path id="Path_21" data-name="Path 21" class="cls-1" d="M80.62,22.81a2.944,2.944,0,0,0,3.57.29,2.387,2.387,0,0,0,.83-1.22l-.82-.1a1.932,1.932,0,0,1-.62.88,1.58,1.58,0,0,1-.99.31,1.735,1.735,0,0,1-1.3-.54,2.394,2.394,0,0,1-.58-1.54l-.01-.11h4.37v-.16a3.1,3.1,0,0,0-.71-2.17,2.4,2.4,0,0,0-1.84-.77,2.466,2.466,0,0,0-1.89.78,3.175,3.175,0,0,0-.73,2.22,2.926,2.926,0,0,0,.72,2.13m.14-2.76a1.894,1.894,0,0,1,.55-1.29,1.7,1.7,0,0,1,1.22-.49,1.655,1.655,0,0,1,1.31.61,2.1,2.1,0,0,1,.4,1.17l.01.11h-3.5Z"/>
    <path id="Path_22" data-name="Path 22" class="cls-1" d="M88.59,23.57a2.628,2.628,0,0,0,1.61-.47,2.387,2.387,0,0,0,.83-1.22l-.82-.1a1.932,1.932,0,0,1-.62.88,1.58,1.58,0,0,1-.99.31,1.735,1.735,0,0,1-1.3-.54,2.394,2.394,0,0,1-.58-1.54l-.01-.11h4.37v-.16a3.1,3.1,0,0,0-.71-2.17,2.4,2.4,0,0,0-1.84-.77,2.466,2.466,0,0,0-1.89.78,3.175,3.175,0,0,0-.73,2.22,2.978,2.978,0,0,0,.72,2.14,2.637,2.637,0,0,0,1.96.75m-1.82-3.52a1.894,1.894,0,0,1,.55-1.29,1.7,1.7,0,0,1,1.22-.49,1.655,1.655,0,0,1,1.31.61,2.1,2.1,0,0,1,.4,1.17l.01.11h-3.5Z"/>
    <path id="Path_23" data-name="Path 23" class="cls-1" d="M72.05,30.11a11.383,11.383,0,0,0-1.77-.51,4.282,4.282,0,0,1-1.66-.6,1.024,1.024,0,0,1-.35-.79,1.17,1.17,0,0,1,.48-.94,2.971,2.971,0,0,1,2.96.03,1.7,1.7,0,0,1,.58,1.12l.82-.06a2.4,2.4,0,0,0-.37-1.12,2.164,2.164,0,0,0-1.01-.81,3.883,3.883,0,0,0-1.54-.28,3.7,3.7,0,0,0-1.44.27,1.959,1.959,0,0,0-.96.77,1.931,1.931,0,0,0-.33,1.08,1.727,1.727,0,0,0,.27.95,2.067,2.067,0,0,0,.82.71,7.2,7.2,0,0,0,1.53.49,12.94,12.94,0,0,1,1.45.4,1.7,1.7,0,0,1,.77.51,1.164,1.164,0,0,1,.24.73,1.21,1.21,0,0,1-.25.75,1.6,1.6,0,0,1-.75.54,2.988,2.988,0,0,1-1.12.19,3.111,3.111,0,0,1-1.28-.25,1.979,1.979,0,0,1-.86-.67,2.274,2.274,0,0,1-.34-.94l-.81.07a2.6,2.6,0,0,0,.42,1.29,2.424,2.424,0,0,0,1.12.92,4.488,4.488,0,0,0,1.79.31,3.485,3.485,0,0,0,1.51-.31,2.3,2.3,0,0,0,1.01-.85,2.129,2.129,0,0,0,.35-1.16,1.915,1.915,0,0,0-.32-1.09,2.253,2.253,0,0,0-.96-.75"/>
    <path id="Path_24" data-name="Path 24" class="cls-1" d="M78.29,28.63a2.294,2.294,0,0,0-1.08-.24,2.12,2.12,0,0,0-1.67.77l-.19.22V26.3h-.78v7.86h.78V31.07a3.065,3.065,0,0,1,.17-1.12,1.39,1.39,0,0,1,.6-.67,1.713,1.713,0,0,1,.88-.24,1.3,1.3,0,0,1,.99.37,1.647,1.647,0,0,1,.35,1.15v3.6h.78v-3.6a3.234,3.234,0,0,0-.2-1.27,1.3,1.3,0,0,0-.63-.66"/>
    <path id="Path_25" data-name="Path 25" class="cls-1" d="M82.67,28.39a2.653,2.653,0,0,0-1.77.62,2.943,2.943,0,0,0-.87,2.32,3.044,3.044,0,0,0,.73,2.2,2.537,2.537,0,0,0,1.91.76,2.754,2.754,0,0,0,1.36-.35,2.289,2.289,0,0,0,.94-.96,3.72,3.72,0,0,0,.33-1.73,2.9,2.9,0,0,0-.74-2.11,2.538,2.538,0,0,0-1.89-.75m1.31,4.7a1.74,1.74,0,0,1-2.62.01,2.611,2.611,0,0,1-.52-1.75,2.559,2.559,0,0,1,.52-1.75,1.729,1.729,0,0,1,2.61-.01,2.5,2.5,0,0,1,.52,1.71,2.571,2.571,0,0,1-.51,1.79"/>
    <path id="Path_26" data-name="Path 26" class="cls-1" d="M90.82,29.8a2.221,2.221,0,0,0-.83-1.04,2.248,2.248,0,0,0-1.26-.37,1.868,1.868,0,0,0-.92.21,2.171,2.171,0,0,0-.69.64l-.19.27v-.99h-.69V36.4h.78V33.35l.19.24a2,2,0,0,0,.61.5,1.8,1.8,0,0,0,.84.2,2.238,2.238,0,0,0,1.23-.37,2.3,2.3,0,0,0,.89-1.05,3.762,3.762,0,0,0,.31-1.57,3.676,3.676,0,0,0-.27-1.5M89.8,33.09a1.524,1.524,0,0,1-1.21.6,1.539,1.539,0,0,1-1.19-.58,2.657,2.657,0,0,1-.48-1.74,2.766,2.766,0,0,1,.51-1.79,1.537,1.537,0,0,1,1.2-.63,1.5,1.5,0,0,1,1.18.59,2.713,2.713,0,0,1,.48,1.74,2.7,2.7,0,0,1-.49,1.81"/>
  </g>
</svg>
