<svg xmlns="http://www.w3.org/2000/svg" width="248.96" height="84.768" viewBox="0 0 248.96 84.768">
  <g id="logo" transform="translate(-840.768 -347.432)">
    <path id="パス_4" data-name="パス 4" d="M40-30.784h5.312v-3.648H41.728A17.135,17.135,0,0,1,40-30.784Zm-11.9,0h8.192l-6.528-2.5a7.628,7.628,0,0,0,.96-1.152H28.1Zm-14.016,0h4.032v-3.648H15.488A26.437,26.437,0,0,1,14.08-30.784ZM30.208-.32A81.365,81.365,0,0,1,7.552,5.7L1.92-2.752Q13.952-3.84,19.264-5.5H9.344V-24.832L.768-29.952A26.426,26.426,0,0,0,5.5-38.784a30.213,30.213,0,0,0,.768-7.552v-4.928a131.281,131.281,0,0,0,20.864-1.984L33.472-45.5a168.68,168.68,0,0,1-17.088,1.728V-42.3h15.04v6.72a20.79,20.79,0,0,0,2.112-10.048V-51.2A100.427,100.427,0,0,0,53.7-53.568l6.912,7.68a137.976,137.976,0,0,1-17.344,2.112V-42.3H61.44v7.872H56.384v6.464H54.72V-5.5H44.736Q50.112-3.84,62.144-2.752L56.448,5.7A80.12,80.12,0,0,1,33.728-.32L38.848-5.5H25.088Zm13.5-23.168v-1.664H20.352v1.664Zm0,5.888v-1.664H20.352V-17.6Zm0,6.016v-1.6H20.352v1.6Z" transform="translate(840 401)"/>
    <path id="パス_3" data-name="パス 3" d="M56.64-45.5a109.735,109.735,0,0,1-14.784,13.12V3.456H29.76V-24.128a164.212,164.212,0,0,1-18.048,9.792L4.48-24.192Q30.592-35.136,46.848-52.736ZM118.784-.64H72.768V-12.032h33.6V-35.9h-33.6V-47.1h46.016Zm66.944-19.072H134.272v-12.16h51.456Z" transform="translate(904 401)" fill="#101010"/>
    <path id="パス_2" data-name="パス 2" d="M8.4-16.56H1.2V0H6.624V-5.16H8.4a7.227,7.227,0,0,0,4.608-1.32,5.277,5.277,0,0,0,1.872-4.368,5.294,5.294,0,0,0-1.872-4.392A7.227,7.227,0,0,0,8.4-16.56ZM7.488-9.24H6.6v-3.24h.888a2.006,2.006,0,0,1,1.32.312,1.459,1.459,0,0,1,.6,1.32,1.462,1.462,0,0,1-.6,1.32A2.163,2.163,0,0,1,7.488-9.24Zm15.72,8.16L23.328,0H28.44V-6.72a5.32,5.32,0,0,0-1.632-4.32c-1.08-.96-2.52-1.44-5.04-1.44a14.582,14.582,0,0,0-5.88,1.272L17.208-7.8a8.552,8.552,0,0,1,3.84-1.08c1.44,0,1.992.48,1.992,1.152v.12l-2.832.12c-1.776.072-4.8.768-4.8,3.768s2.4,4.008,4.68,4.008A4.238,4.238,0,0,0,23.208-1.08Zm-1.2-3.84,1.08-.072V-3.48a1.5,1.5,0,0,1-1.08.48c-.6,0-1.2-.24-1.2-.96S21.432-4.9,22.008-4.92Zm6.912-7.32L32.88,0h5.16l1.608-6L41.28,0h5.16L50.4-12.24H45L43.44-5.76l-1.56-6.48H37.44L35.88-5.76l-1.56-6.48Zm22.32,0V0h5.4V-6c0-1.2.12-2.112,1.248-2.112C59.04-8.112,59.16-7.2,59.16-6V0h5.4V-7.2c0-3-.96-5.28-4.56-5.28a3.865,3.865,0,0,0-3.432,1.8l.072-1.56ZM67.368-4.56,65.544-1.392a9.289,9.289,0,0,0,5.808,1.7c3.043,0,5.424-1.6,5.424-4.152,0-2.592-1.767-3.544-4-4.181l-.492-.139c-.717-.2-1.32-.36-1.32-.713,0-.2.192-.343.721-.343a7.287,7.287,0,0,1,3.479,1.152l1.464-3.024A8.954,8.954,0,0,0,71.448-12.5c-2.928,0-5.16,1.56-5.16,4.1A3.4,3.4,0,0,0,69.1-4.872l1.44.456c.936.3,1.512.432,1.512.807,0,.3-.36.345-.584.345A8.556,8.556,0,0,1,67.368-4.56Zm10.776-12V0h5.4V-6c0-1.2.12-2.112,1.272-2.112,1.128,0,1.248.912,1.248,2.112V0h5.4V-7.2c0-3-.96-5.28-4.56-5.28a3.735,3.735,0,0,0-3.408,1.8s.048-1.56.048-2.28v-3.6ZM92.616-6.1c0,4.08,3,6.384,7.08,6.384s7.08-2.3,7.08-6.384-3-6.384-7.08-6.384S92.616-10.176,92.616-6.1ZM99.7-4.08c-1.08,0-1.68-.84-1.68-2.088,0-1.272.6-2.112,1.68-2.112s1.68.84,1.68,2.112C101.376-4.92,100.776-4.08,99.7-4.08Zm8.4-8.16V4.2h5.4l0-3.422c-.009-.653-.026-1.326-.074-1.978A4.025,4.025,0,0,0,116.976.288c3.48,0,5.64-2.784,5.64-6.384s-2.16-6.384-5.64-6.384a5.2,5.2,0,0,0-3.84,1.44l.048-1.2Zm7.128,8.16a1.913,1.913,0,0,1-1.92-2.088,1.92,1.92,0,0,1,1.92-2.112,1.908,1.908,0,0,1,1.92,2.112A1.9,1.9,0,0,1,115.224-4.08Zm13.632-12.48V0h5.424V-16.56Zm7.824,0V0h5.4V-4.32l.96-1.2L145.8,0h6.48l-5.712-9.888,5.352-6.672h-6.36l-3.48,5.04v-5.04ZM160.2.288c5.16,0,9-3.144,9-8.544s-3.84-8.568-9-8.568-9,3.168-9,8.568S155.04.288,160.2.288Zm0-4.8c-2.16,0-3.552-1.584-3.552-3.864s1.392-3.864,3.552-3.864,3.528,1.584,3.528,3.864S162.36-4.512,160.2-4.512Z" transform="translate(915 428)" fill="#30651a"/>
    <path id="パス_1" data-name="パス 1" d="M22.008-13.464H2.088v-5.928h19.92ZM18.024-15.84V-16.7h-1.9v.864Zm-5.112,0V-16.7h-1.8v.864Zm-5.064,0V-16.7h-1.8v.864ZM11.28-.264A27.584,27.584,0,0,1,2.832,2.184L.672-1.176a34.422,34.422,0,0,0,6.456-1.1H3.24V-12.864H20.784V-2.28H16.872a34.943,34.943,0,0,0,6.456,1.1l-2.16,3.36A28.146,28.146,0,0,1,12.7-.264L14.64-2.28h-5.3ZM16.656-9.84v-.624H7.368v.624Zm0,2.544V-7.92H7.368V-7.3Zm0,2.64V-5.28H7.368v.624Zm20.5-11.016H36.36V-1.9a22.6,22.6,0,0,0,2.856-3.1,26.2,26.2,0,0,1-2.4-7.752l3.336-1.536a25.126,25.126,0,0,0,1.272,5.04,21.447,21.447,0,0,0,.864-5.16H37.152ZM30.312-5.064q.888-.12,2.16-.36v-1.3h-2.16Zm2.16,3.312A67.287,67.287,0,0,1,25.3-.624l-.912-3.864,1.992-.144v-11.04H24.888v-3.7H37.7v1.1H46.32V-15.1a32.185,32.185,0,0,1-2.472,9.984,22.053,22.053,0,0,0,3.7,3.264l-2.688,3.7a28.088,28.088,0,0,1-3.24-3.24,27.026,27.026,0,0,1-3.024,3.336L36.36-.5V1.68H32.472Zm0-12.624v-1.3h-2.16v1.3Zm0,4.464v-1.272h-2.16v1.272Z" transform="translate(849 430)" fill="#30651a"/>
  </g>
</svg>
